<?xml version="1.0" encoding="utf-8"?>
<!-- Generator: Adobe Illustrator 21.0.0, SVG Export Plug-In . SVG Version: 6.00 Build 0)  -->
<svg version="1.1" id="图层_1" xmlns="http://www.w3.org/2000/svg" xmlns:xlink="http://www.w3.org/1999/xlink" x="0px" y="0px"
	 viewBox="0 0 1024 820" style="enable-background:new 0 0 1024 820;" xml:space="preserve">
<style type="text/css">
	.st0{fill:#10171D;stroke:#FFFFFF;stroke-width:5.96;}
	.st1{fill:#000211;}
	.st2{fill:#00CCFF;}
	.st3{fill:#FF00C4;}
	.st4{fill:#FDB300;}
	.st5{fill:#EA6C00;}
	.st6{fill:#FDAD00;}
	.st7{fill:#FDD231;}
	.st8{fill:#FEEEB7;}
	.st9{fill:url(#SVGID_1_);stroke:#2E3436;stroke-width:2.11;}
	.st10{fill:url(#SVGID_2_);}
	.st11{opacity:0.18;fill:none;stroke:url(#SVGID_3_);stroke-width:2.11;enable-background:new    ;}
	.st12{fill:url(#SVGID_4_);stroke:#888A85;stroke-width:2.11;}
	.st13{fill:url(#SVGID_5_);stroke:#000000;stroke-width:2.11;}
	.st14{fill:#2E3436;stroke:#000000;stroke-width:2.11;}
	.st15{opacity:0.28;fill:none;stroke:url(#SVGID_6_);stroke-width:2.1;enable-background:new    ;}
	.st16{fill:#FFFFFF;}
	.st17{fill:url(#SVGID_7_);stroke:#888A85;stroke-width:2.11;}
	.st18{fill:url(#SVGID_8_);stroke:#673907;stroke-width:2.11;stroke-linecap:round;}
	.st19{fill:url(#SVGID_9_);stroke:#888A85;stroke-width:2.11;stroke-linecap:round;}
	.st20{fill:none;stroke:#FFFFFF;stroke-width:2.11;stroke-linecap:round;stroke-linejoin:round;}
	.st21{fill:url(#SVGID_10_);}
	.st22{opacity:0.53;fill:#FFFFFF;enable-background:new    ;}
	.st23{opacity:0.43;fill:url(#SVGID_11_);enable-background:new    ;}
	.st24{fill:url(#SVGID_12_);}
	.st25{fill:#706D6D;}
	.st26{fill:#BFBFBF;}
	.st27{fill:#414141;}
	.st28{fill:#E8E6E6;}
	.st29{fill:#1C1C1C;}
	.st30{fill:#686868;}
	.st31{fill:#DA0100;}
	.st32{fill:#3F4957;}
	.st33{enable-background:new    ;}
	.st34{fill:#8A95AE;}
</style>
<path class="st0" d="M3,43.7v732.7C3,798.8,21.3,817,43.8,817h936.4c22.5,0,40.8-18.2,40.8-40.7V43.7c0-22.5-18.3-40.7-40.8-40.7
	H43.8C21.3,3,3,21.2,3,43.7z"/>
<path class="st1" d="M70.8,683.7v52c0,4.4,3.6,8,8,8h44c4.4,0,8-3.6,8-8v-52c0-4.4-3.6-8-8-8h-44C74.4,675.7,70.8,679.3,70.8,683.7z
	"/>
<path class="st2" d="M78.8,675.7h44c4.4,0,8,3.6,8,8v52c0,4.4-3.6,8-8,8h-44c-4.4,0-8-3.6-8-8V725h-8.6c-3.4,0-6.2-2.8-6.2-6.2
	v-16.6c0-3.4,2.8-6.2,6.2-6.2l0,0h8.6v-12.3C70.8,679.3,74.4,675.7,78.8,675.7L78.8,675.7z M77,738h48v-56H77v14h25.8
	c3.4,0,6.2,2.8,6.2,6.2v16.6c0,3.4-2.8,6.2-6.2,6.2l0,0H77V738z"/>
<path d="M74.9,707c0,1.7-0.5,3-1.6,3.9s-2.6,1.3-4.5,1.3h-1.4v5.6H64v-15.7h5c1.9,0,3.3,0.4,4.3,1.2C74.4,704.2,74.9,705.4,74.9,707
	z M67.4,704.9v4.7h1.1c1,0,1.8-0.2,2.3-0.6c0.5-0.4,0.8-1,0.8-1.8s-0.2-1.4-0.6-1.7c-0.4-0.4-1.1-0.6-2-0.6L67.4,704.9L67.4,704.9z
	 M87.1,713.5c0,1.4-0.5,2.5-1.5,3.3s-2.4,1.2-4.2,1.2c-1.5,0-3.1-0.3-4.4-1v-3c1.1,0.5,2,0.8,2.7,1s1.4,0.3,2,0.3
	c0.7,0,1.3-0.1,1.7-0.4c0.4-0.3,0.6-0.7,0.6-1.2c0-0.3-0.1-0.6-0.3-0.8c-0.2-0.3-0.5-0.5-0.8-0.7s-1-0.6-2-1.1
	c-0.8-0.3-1.5-0.8-2.2-1.3c-0.5-0.4-0.9-0.9-1.2-1.5c-0.3-0.6-0.4-1.3-0.4-1.9c0-1.4,0.5-2.5,1.4-3.3c1.1-0.8,2.5-1.3,3.9-1.2
	c0.8,0,1.6,0.1,2.3,0.3c0.7,0.2,1.5,0.5,2.3,0.8l-1.1,2.6c-0.8-0.3-1.5-0.6-2.1-0.7c-0.5-0.1-1.1-0.2-1.6-0.2
	c-0.6,0-1.1,0.2-1.4,0.4s-0.5,0.7-0.5,1.2c0,0.3,0.1,0.5,0.2,0.8c0.1,0.2,0.3,0.4,0.6,0.6c0.3,0.2,1,0.6,2.1,1.1
	c1.2,0.5,2.2,1.2,3,2.1C86.9,711.6,87.1,712.4,87.1,713.5L87.1,713.5z M103,709.8c0,2.6-0.7,4.6-2.2,5.9c-1.5,1.4-3.6,2.1-6.4,2.1
	H90v-15.7h4.9c2.6,0,4.6,0.7,6,2C102.3,705.5,103,707.4,103,709.8L103,709.8z M99.5,709.9c0-3.4-1.5-5.1-4.5-5.1h-1.8V715h1.4
	C97.9,715.1,99.5,713.4,99.5,709.9z"/>
<path class="st1" d="M226.8,683.7v52c0,4.4,3.6,8,8,8h44c4.4,0,8-3.6,8-8v-52c0-4.4-3.6-8-8-8h-44
	C230.4,675.7,226.8,679.3,226.8,683.7L226.8,683.7z"/>
<path class="st3" d="M234.8,675.7h44c4.4,0,8,3.6,8,8v52c0,4.4-3.6,8-8,8h-44c-4.4,0-8-3.6-8-8V725h-8.6c-3.4,0-6.2-2.8-6.2-6.2
	v-16.6c0-3.4,2.8-6.2,6.2-6.2l0,0h8.6v-12.3C226.8,679.3,230.4,675.7,234.8,675.7L234.8,675.7z M233,738h48v-56h-48v14h25.8
	c3.4,0,6.2,2.8,6.2,6.2v16.6c0,3.4-2.8,6.2-6.2,6.2l0,0H233V738z"/>
<path d="M233.1,709.9l5.3,7.9h-3.8l-3.6-5.9l-3.6,5.9h-3.6l5.2-8.1l-4.9-7.6h3.7l3.4,5.7l3.3-5.7h3.6L233.1,709.9z M253.4,709.8
	c0,2.6-0.7,4.6-2.2,5.9c-1.5,1.4-3.6,2.1-6.4,2.1h-4.4v-15.7h4.9c2.6,0,4.6,0.7,6,2C252.7,705.5,253.4,707.4,253.4,709.8
	L253.4,709.8z M249.9,709.9c0-3.4-1.5-5.1-4.5-5.1h-1.8V715h1.4C248.3,715.1,249.9,713.4,249.9,709.9L249.9,709.9z"/>
<path class="st4" d="M388.7,681.6l21.4-2.3l21.4,2.3l16.6,22.3l-38,44.3l-38-44.3L388.7,681.6z"/>
<path class="st5" d="M372.1,703.9l38,44.3l-22.6-44.3H372.1z M432.8,703.9l-22.6,44.3l38-44.3H432.8z"/>
<path class="st6" d="M410.2,748.2l22.6-44.3h-45.3L410.2,748.2z"/>
<g>
	<path class="st7" d="M410.2,679.3l-21.4,2.3l-1.2,22.3L410.2,679.3z M432.8,703.9l-1.2-22.3l-21.4-2.3L432.8,703.9z"/>
	<path class="st6" d="M448.2,703.9l-16.6-22.3l1.2,22.3H448.2z M387.5,703.9l1.2-22.3l-16.6,22.3H387.5z"/>
	<path class="st8" d="M410.2,679.3l-22.6,24.5h45.3L410.2,679.3z"/>
</g>
<g>
	<g>
		<ellipse cx="578.7" cy="729.2" rx="21.5" ry="9.3"/>
	</g>
	
		<radialGradient id="SVGID_1_" cx="564.91" cy="180.8101" r="58.85" gradientTransform="matrix(1 0 0 1 0 528)" gradientUnits="userSpaceOnUse">
		<stop  offset="0" style="stop-color:#857C63"/>
		<stop  offset="1" style="stop-color:#221F19"/>
	</radialGradient>
	<path class="st9" d="M551.9,688.1c0,0,6.1,12.5,20.3,12.2c29.7-0.8,35-16.3,35.7-18.5s1.9-1.9,2.2,0.2c9.7,88-67.3,50.3-70,35.3
		c15.3-4.5,11.6-13.1,11.6-13.1L551.9,688.1z"/>
	
		<linearGradient id="SVGID_2_" gradientUnits="userSpaceOnUse" x1="590.5013" y1="195.9214" x2="567.1412" y2="200.5613" gradientTransform="matrix(1 0 0 1 0 528)">
		<stop  offset="0" style="stop-color:#000000"/>
		<stop  offset="1" style="stop-color:#000000;stop-opacity:0"/>
	</linearGradient>
	<path class="st10" d="M563.2,725.2c14.2,2.8,21.5,0.2,25.7-3.1c-1.1-1.5-3-3-3-3s5,1.4,6.7,3.6c1.7,2.2,0.7,3.6,0.2,6.5
		c-1-2.5-2.9-3.5-3.2-4.5C585.8,730.1,576.3,729.8,563.2,725.2L563.2,725.2z"/>
	
		<linearGradient id="SVGID_3_" gradientUnits="userSpaceOnUse" x1="569.6926" y1="166.7929" x2="621.6326" y2="225.753" gradientTransform="matrix(1 0 0 1 0 528)">
		<stop  offset="0" style="stop-color:#FFFFFF"/>
		<stop  offset="1" style="stop-color:#FFFFFF;stop-opacity:0"/>
	</linearGradient>
	<path class="st11" d="M608,686.7c-1.5,2.5-3.4,4.7-5.7,6.5c-5.5,4.6-14.9,8.8-30.1,9.2c-8.9,0.2-14.7-4.1-18.2-7.9l-0.3,9.4
		c0.3,0.9,0.9,2.9-0.1,5.7c-1.1,3-4.5,6.1-10.5,8.4c0.5,1.1,1,2.2,2.6,3.8c2.6,2.5,5.6,4.7,8.8,6.5c7.2,4.1,16.5,7.4,25.1,7.5
		c8.7,0.2,16.6-2.6,22-10.5C606.7,718,609.4,705.6,608,686.7L608,686.7z"/>
	
		<radialGradient id="SVGID_4_" cx="558.7629" cy="172.86" r="12.5196" gradientTransform="matrix(1 0 0 1 0 528)" gradientUnits="userSpaceOnUse">
		<stop  offset="0" style="stop-color:#FFFFFF"/>
		<stop  offset="1" style="stop-color:#B9B9B0"/>
	</radialGradient>
	<path class="st12" d="M567.3,706.9c0,4.7-3.8,8.6-8.5,8.6c-1.5,0-3-0.4-4.3-1.2c-4.1-2.4-5.5-7.6-3.1-11.7
		c2.4-4.1,7.6-5.5,11.7-3.1C565.7,701,567.3,703.9,567.3,706.9z"/>
	
		<radialGradient id="SVGID_5_" cx="539.41" cy="182.99" r="9.39" gradientTransform="matrix(1 0 0 1 0 528)" gradientUnits="userSpaceOnUse">
		<stop  offset="0" style="stop-color:#5B676B"/>
		<stop  offset="1" style="stop-color:#141718"/>
	</radialGradient>
	<path class="st13" d="M550.2,710.1c4.2,5.8,4.2,12.8,0.1,15.8s-10.8,0.7-14.9-5.1s-4.2-12.8-0.1-15.8S546.1,704.4,550.2,710.1z"/>
	<path class="st14" d="M564.9,708.2c0,2.3-1.9,4.1-4.1,4.1s-4.1-1.9-4.1-4.1s1.9-4.1,4.1-4.1S564.9,705.9,564.9,708.2z"/>
	
		<linearGradient id="SVGID_6_" gradientUnits="userSpaceOnUse" x1="540.5449" y1="184.5443" x2="545.1147" y2="191.1643" gradientTransform="matrix(1 0 0 1 0 528)">
		<stop  offset="0" style="stop-color:#FFFFFF"/>
		<stop  offset="1" style="stop-color:#242424"/>
	</linearGradient>
	<path class="st15" d="M536.1,706.9c-1.3,1-2.1,2.7-2,5c0.2,2.8,1.2,5.5,2.9,7.7c1.6,2.3,3.9,4,6.5,4.9c2.2,0.7,4,0.5,5.4-0.5
		c1.3-1,2.1-2.8,2-5.1c-0.1-2.8-1.1-5.4-2.8-7.6c-1.6-2.2-3.9-3.9-6.5-4.8C539.3,705.7,537.4,705.9,536.1,706.9L536.1,706.9z"/>
	<path class="st16" d="M542.3,710.8c0,1.6-0.7,3.1-1.9,3.9c-1.1,0.8-2.6,0.8-3.7,0c-1.2-0.9-1.9-2.4-1.9-3.9c0-1.6,0.7-3.1,1.9-3.9
		c1.1-0.8,2.6-0.8,3.7,0C541.6,707.8,542.3,709.3,542.3,710.8z M562,706.3c0,1.6-1.3,2.9-2.9,2.9c-1.6,0-2.9-1.3-2.9-2.9l0,0
		c0-1.6,1.3-2.9,2.9-2.9C560.8,703.4,562,704.7,562,706.3z"/>
	
		<radialGradient id="SVGID_7_" cx="576.4792" cy="172.74" r="14.7111" gradientTransform="matrix(1 0 0 1 0 528)" gradientUnits="userSpaceOnUse">
		<stop  offset="0" style="stop-color:#FFFFFF"/>
		<stop  offset="1" style="stop-color:#B9B9B0"/>
	</radialGradient>
	<path class="st17" d="M586.5,707.8c0,5.6-4.5,10.1-10,10.1c-1.8,0-3.5-0.5-5.1-1.4c-4.8-2.8-6.5-8.9-3.7-13.8
		c2.8-4.8,8.9-6.5,13.8-3.7C584.6,700.9,586.5,704.2,586.5,707.8z"/>
	<path class="st14" d="M583.7,709.3c0,2.7-2.2,4.9-4.8,4.9c-2.7,0-4.9-2.2-4.9-4.9l0,0c0-2.7,2.2-4.8,4.8-4.8
		C581.5,704.5,583.7,706.6,583.7,709.3z"/>
	<path class="st16" d="M580.3,707.1c0,1.9-1.5,3.4-3.4,3.4s-3.4-1.5-3.4-3.4l0,0c0-1.9,1.5-3.4,3.4-3.4
		C578.8,703.7,580.3,705.2,580.3,707.1z"/>
	
		<linearGradient id="SVGID_8_" gradientUnits="userSpaceOnUse" x1="598.6295" y1="199.5939" x2="594.2195" y2="209.2339" gradientTransform="matrix(1 0 0 1 0 528)">
		<stop  offset="0" style="stop-color:#6E3D09"/>
		<stop  offset="0.24" style="stop-color:#EA8113"/>
		<stop  offset="0.62" style="stop-color:#5C3307"/>
		<stop  offset="1" style="stop-color:#E07C12"/>
	</linearGradient>
	<path class="st18" d="M607.2,737.9l2-3.9c-7.3-5.3-20.7-9.2-20.7-9.2c-2.3-1.1-3.1,1-1.5,2.4C587,727.2,598.5,735.4,607.2,737.9
		L607.2,737.9z"/>
	
		<linearGradient id="SVGID_9_" gradientUnits="userSpaceOnUse" x1="611.0239" y1="211.3702" x2="612.9539" y2="207.4802" gradientTransform="matrix(1 0 0 1 0 528)">
		<stop  offset="0" style="stop-color:#BDBDBD"/>
		<stop  offset="0.33" style="stop-color:#E2E2E2"/>
		<stop  offset="0.67" style="stop-color:#A3A3A3"/>
		<stop  offset="1" style="stop-color:#DDDDDD"/>
	</linearGradient>
	<path class="st19" d="M616.5,741.5l1-2.3l-8.1-5.2l-0.7-0.1l-0.3-0.9c-1.2,0.7-2.9,3.5-2.4,5l0.9-0.3l0.5,0.5L616.5,741.5
		L616.5,741.5z"/>
	<path class="st20" d="M611.2,737.1l5.4,2.3"/>
	
		<radialGradient id="SVGID_10_" cx="616.68" cy="214.05" r="10.21" gradientTransform="matrix(1 0 0 1 0 528)" gradientUnits="userSpaceOnUse">
		<stop  offset="0" style="stop-color:#696969"/>
		<stop  offset="1" style="stop-color:#000000"/>
	</radialGradient>
	<path class="st21" d="M628.3,751.3c-2.5-8.6-3.4-15.4-10-14.8c-5.3,0.5-5.7,8.1-0.2,10.2C621.5,748.1,625,749.7,628.3,751.3z"/>
	<path class="st22" d="M618.7,737.2c1.2-0.3,2.4,0.3,2.8,1.5c0.1,0.4,0.1,0.8,0,1.1c-0.4,1.2-1.7,1.8-2.8,1.4
		c-1-0.3-1.7-1.4-1.5-2.4C617.3,738.1,617.9,737.5,618.7,737.2L618.7,737.2z"/>
	<path class="st16" d="M609,734.1c0.5-0.2,1.1,0,1.5,0.3c0.6,0.6,0.6,1.5,0.1,2.1c-0.6,0.6-1.5,0.6-2.1,0.1
		c-0.6-0.6-0.6-1.5-0.1-2.1C608.5,734.3,608.7,734.1,609,734.1z"/>
	
		<linearGradient id="SVGID_11_" gradientUnits="userSpaceOnUse" x1="622.3967" y1="212.1793" x2="624.8667" y2="216.7694" gradientTransform="matrix(1 0 0 1 0 528)">
		<stop  offset="0" style="stop-color:#FFFFFF"/>
		<stop  offset="1" style="stop-color:#FFFFFF;stop-opacity:0"/>
	</linearGradient>
	<path class="st23" d="M625.1,746.2c0,0-0.8-3.1-2.6-4.7c-0.6-0.6,0.2-1.4,0.8-0.7C624.6,742.4,625.1,746.2,625.1,746.2z"/>
	
		<linearGradient id="SVGID_12_" gradientUnits="userSpaceOnUse" x1="585.0306" y1="197.4955" x2="581.1205" y2="198.4355" gradientTransform="matrix(1 0 0 1 0 528)">
		<stop  offset="0" style="stop-color:#000000"/>
		<stop  offset="1" style="stop-color:#000000;stop-opacity:0"/>
	</linearGradient>
	<path class="st24" d="M578.5,728.7c3.2,0.3,6-0.6,7.2-1c0.3-2.1,2.2-3.6,4.3-3.6l-1.1-2c0,0-4.2,2.8-8.6,3.7L578.5,728.7z"/>
</g>
<g>
	<path class="st25" d="M762.7,674h-29.4c-3.9,0-7,3.1-7,7l0,0v2.3h43.5V681C769.7,677.1,766.6,674,762.7,674L762.7,674L762.7,674z"
		/>
	<path class="st26" d="M789.7,683.4h-83.4c-4.6,0-8.3,3.7-8.3,8.3v42.5c0,4.6,3.7,8.3,8.3,8.3h83.4c4.6,0,8.3-3.7,8.3-8.3v-42.5
		C798,687.1,794.3,683.4,789.7,683.4L789.7,683.4z"/>
	<path class="st27" d="M798,692.7H698v40.4h100V692.7z"/>
	<path class="st28" d="M748,685.9c-14.9,0-27.1,12.1-27.1,27S733,740,748,740l0,0c14.9,0,27.1-12.1,27-27.1
		C775,698,762.9,685.9,748,685.9z"/>
	<path class="st29" d="M748,693.8c-10.6,0-19.2,8.6-19.2,19.2s8.6,19.2,19.2,19.2s19.2-8.6,19.2-19.2S758.6,693.8,748,693.8z"/>
	<path class="st30" d="M740.1,699.3c-3.1-0.1-5.8,2.3-5.9,5.4c-0.1,3.1,2.3,5.8,5.4,5.9c0.2,0,0.3,0,0.5,0c3.1-0.1,5.6-2.8,5.4-5.9
		C745.4,701.8,743.1,699.4,740.1,699.3z"/>
	<path class="st31" d="M791.8,694.5c-1.3,0-2.4,1.1-2.4,2.4s1.1,2.4,2.4,2.4s2.4-1.1,2.4-2.4S793.1,694.5,791.8,694.5z"/>
</g>
<g>
	<path d="M864,688.8V739c0,5.5,4.6,10,10.2,10h81.4c5.6,0,10.1-4.5,10.2-10l0,0v-50.2c0-5.5-4.6-10-10.2-10h-81.4
		C868.6,678.7,864,683.2,864,688.8L864,688.8z"/>
	<path class="st16" d="M876.9,697c-1.1,0.1-2.1-0.2-3-0.8c-0.7-0.6-1.2-1.5-1.4-2.7l2.6-0.4c0.1,0.6,0.3,1.1,0.6,1.4
		s0.7,0.5,1.2,0.5s0.9-0.2,1.2-0.5s0.4-0.8,0.4-1.5v-6.5H876v-2h5.1v8.5c0,1.3-0.4,2.3-1.1,3C879.2,696.7,878.1,697.1,876.9,697
		L876.9,697z M894,688.3c0,0.8-0.2,1.5-0.5,2.1c-0.4,0.6-0.9,1.1-1.6,1.5c-0.7,0.3-1.5,0.5-2.5,0.5h-3.1v4.4h-2.6v-12.4h5.7
		c1.5,0,2.7,0.3,3.5,1C893.6,686.2,894.1,687.2,894,688.3L894,688.3z M891.4,688.4c0-1.3-0.8-2-2.3-2h-2.7v4h2.8
		c0.7,0,1.3-0.2,1.7-0.5C891.2,689.6,891.4,689,891.4,688.4z M901.9,695c0.7,0,1.3-0.1,2-0.3c0.6-0.2,1.1-0.5,1.5-0.8v-1.7h-3.1
		v-1.9h5.5v4.6c-0.7,0.7-1.6,1.3-2.6,1.6c-1.1,0.4-2.2,0.6-3.4,0.6c-2,0-3.6-0.6-4.7-1.7s-1.7-2.7-1.7-4.8c0-2,0.5-3.6,1.7-4.7
		s2.7-1.6,4.8-1.6c3,0,4.8,1.1,5.6,3.2l-2.4,0.7c-0.2-0.6-0.7-1.1-1.2-1.4c-0.6-0.3-1.3-0.5-2-0.5c-1.2,0-2.2,0.4-2.8,1.1
		c-0.6,0.7-1,1.8-1,3.2s0.3,2.5,1,3.3C899.7,694.6,900.6,695,901.9,695L901.9,695z M930.7,688.3c0,0.8-0.2,1.5-0.5,2.1
		c-0.4,0.6-0.9,1.1-1.6,1.5c-0.7,0.3-1.5,0.5-2.5,0.5H923v4.4h-2.6v-12.4h5.7c1.5,0,2.7,0.3,3.5,1
		C930.3,686.2,930.7,687.2,930.7,688.3L930.7,688.3z M928,688.4c0-1.3-0.8-2-2.3-2H923v4h2.8c0.7,0,1.3-0.2,1.7-0.5
		C927.8,689.6,928,689,928,688.4z M943.3,696.8h-3.1l-5.5-9.6c0.1,0.9,0.2,1.7,0.2,2.2v7.3h-2.3v-12.4h3l5.6,9.7
		c-0.1-0.9-0.2-1.7-0.2-2.4v-7.2h2.3V696.8z M951.7,695c0.7,0,1.3-0.1,2-0.3c0.6-0.2,1.1-0.5,1.5-0.8v-1.7h-3.1v-1.9h5.5v4.6
		c-0.7,0.7-1.6,1.3-2.6,1.6c-1.1,0.4-2.2,0.6-3.4,0.6c-2,0-3.6-0.6-4.7-1.7s-1.7-2.7-1.7-4.8c0-2,0.5-3.6,1.7-4.7s2.7-1.6,4.8-1.6
		c3,0,4.8,1.1,5.6,3.2l-2.4,0.7c-0.2-0.6-0.7-1.1-1.2-1.4c-0.6-0.3-1.3-0.5-2-0.5c-1.2,0-2.2,0.4-2.8,1.1c-0.6,0.7-1,1.8-1,3.2
		s0.3,2.5,1,3.3C949.6,694.6,950.5,695,951.7,695L951.7,695z M880.5,714.1c0.7,0,1.3-0.1,2-0.3c0.6-0.2,1.1-0.5,1.5-0.8v-1.7h-3.1
		v-1.9h5.5v4.6c-0.7,0.7-1.6,1.3-2.6,1.6c-1.1,0.4-2.2,0.6-3.4,0.6c-2,0-3.6-0.6-4.7-1.7s-1.7-2.7-1.7-4.8c0-2,0.5-3.6,1.7-4.7
		s2.7-1.6,4.8-1.6c3,0,4.8,1.1,5.6,3.2l-2.4,0.7c-0.2-0.6-0.7-1.1-1.2-1.4c-0.6-0.3-1.3-0.5-2-0.5c-1.2,0-2.2,0.4-2.8,1.1
		c-0.6,0.7-1,1.8-1,3.2s0.3,2.5,1,3.3C878.3,713.7,879.3,714,880.5,714.1L880.5,714.1z M891.4,715.9h-2.6v-12.4h2.6V715.9z
		 M903.1,705.5h-6.7v3.8h6.5v2h-6.5v4.6h-2.6v-12.4h9.3V705.5z M930.1,705.5H926v10.4h-2.6v-10.4h-4.1v-2h10.8L930.1,705.5z
		 M934.1,715.9h-2.6v-12.4h2.6V715.9z M945.9,705.5h-6.7v3.8h6.5v2h-6.5v4.6h-2.6v-12.4h9.3V705.5z M957.1,705.5h-6.7v3.8h6.5v2
		h-6.5v4.6h-2.6v-12.4h9.3V705.5z M884.3,731.4c0,1.2-0.5,2.2-1.4,2.8s-2.2,1-4,1c-1.3,0.1-2.6-0.2-3.8-0.8
		c-0.9-0.6-1.6-1.5-1.8-2.6l2.5-0.4c0.2,0.7,0.5,1.1,1,1.4c0.5,0.3,1.2,0.4,2.1,0.4c1.8,0,2.8-0.5,2.8-1.7c0-0.3-0.1-0.6-0.3-0.9
		c-0.2-0.3-0.6-0.4-0.9-0.6c-0.7-0.2-1.5-0.4-2.2-0.6c-0.9-0.2-1.6-0.4-2-0.5s-0.7-0.3-1-0.5c-0.6-0.3-1-0.9-1.2-1.5
		c-0.1-0.4-0.2-0.8-0.2-1.2c0-1.1,0.4-2,1.3-2.6c0.9-0.6,2.1-0.9,3.7-0.9c1.6,0,2.7,0.2,3.5,0.7s1.4,1.4,1.5,2.4l-2.6,0.3
		c-0.1-0.5-0.4-0.9-0.8-1.2s-1-0.4-1.7-0.4c-1.6,0-2.4,0.5-2.4,1.5c0,0.3,0.1,0.6,0.2,0.8c0.2,0.2,0.4,0.4,0.8,0.5
		c0.3,0.1,1,0.3,2,0.5c1.2,0.2,2.1,0.5,2.6,0.7s0.9,0.5,1.2,0.8s0.5,0.6,0.7,1C884.2,730.4,884.3,730.9,884.3,731.4L884.3,731.4z
		 M897.1,722.6l-4.6,12.4h-2.7l-4.7-12.4h2.8l2.6,8c0.2,0.5,0.4,1.3,0.7,2.3l0.2-0.8l0.5-1.6l2.6-8L897.1,722.6z M904.4,733.1
		c0.7,0,1.3-0.1,2-0.3c0.6-0.2,1.1-0.5,1.5-0.8v-1.7h-3.1v-1.9h5.5v4.6c-0.7,0.7-1.6,1.3-2.6,1.6c-1.1,0.4-2.2,0.6-3.4,0.6
		c-2,0-3.6-0.6-4.7-1.7s-1.7-2.7-1.7-4.8c0-2,0.5-3.6,1.7-4.7s2.7-1.6,4.8-1.6c3,0,4.8,1.1,5.6,3.2l-2.4,0.7
		c-0.2-0.6-0.7-1.1-1.2-1.4c-0.6-0.3-1.3-0.5-2-0.5c-1.2,0-2.2,0.4-2.8,1.1c-0.6,0.7-1,1.8-1,3.2s0.3,2.5,1,3.3
		C902.3,732.7,903.2,733.1,904.4,733.1L904.4,733.1z M933.2,726.5c0,0.8-0.2,1.5-0.5,2.1c-0.4,0.6-0.9,1.1-1.6,1.5
		c-0.7,0.3-1.5,0.5-2.5,0.5h-3.1v4.4h-2.6v-12.4h5.7c1.5,0,2.7,0.3,3.5,1C932.8,724.3,933.3,725.4,933.2,726.5L933.2,726.5z
		 M930.6,726.5c0-1.3-0.8-2-2.3-2h-2.7v4h2.8c0.7,0,1.3-0.2,1.7-0.5C930.4,727.7,930.6,727.2,930.6,726.5z M946.3,728.7
		c0,1.3-0.3,2.4-0.8,3.4c-0.5,0.9-1.2,1.7-2.2,2.2c-0.9,0.5-2,0.8-3.2,0.8H935v-12.4h4.6c2.1,0,3.8,0.5,4.9,1.6
		C945.7,725.2,946.3,726.7,946.3,728.7L946.3,728.7z M943.6,728.7c0-1.3-0.3-2.3-1.1-3c-0.7-0.7-1.7-1.1-3-1.1h-1.9v8.4h2.2
		c1,0,2-0.4,2.7-1.2C943.3,731,943.6,730,943.6,728.7z M957.6,724.6h-6.7v3.8h6.5v2h-6.5v4.6h-2.6v-12.4h9.3V724.6z M911.7,744.1
		h-2.6v-2.7h2.6V744.1z M916.8,744.1h-2.6v-2.7h2.6V744.1z M921.9,744.1h-2.6v-2.7h2.6V744.1z"/>
</g>
<path class="st16" d="M65,789.7h-3.2V786H65V789.7z M89,773.4c0,2.2-0.7,4-2.2,5.3c-1.4,1.3-3.4,2-5.9,2H74v9.1h-3.2v-23.3h9.9
	c2.6,0,4.7,0.6,6.1,1.8C88.3,769.4,89,771.1,89,773.4L89,773.4z M85.8,773.4c0-3-1.8-4.5-5.5-4.5H74v9.2h6.4
	C84.1,778.1,85.8,776.5,85.8,773.4z M112,783.2c0,2.2-0.8,3.8-2.6,5c-1.7,1.2-4.1,1.8-7.1,1.8c-5.7,0-9-2-9.9-5.9l3.1-0.6
	c0.3,1.3,1.1,2.4,2.3,3.1c1.2,0.7,2.7,1,4.7,1c2.1,0,3.6-0.3,4.7-1c1.1-0.6,1.7-1.8,1.7-3.1c0-0.8-0.2-1.4-0.5-1.9
	c-0.4-0.5-0.9-0.9-1.5-1.2s-1.4-0.6-2.3-0.8l-2.9-0.7c-1.4-0.3-2.9-0.7-4.2-1.2c-0.8-0.3-1.6-0.8-2.3-1.4c-0.5-0.5-1-1.1-1.3-1.8
	s-0.4-1.5-0.4-2.3c0-2,0.8-3.5,2.3-4.6s3.7-1.6,6.6-1.6c2.7,0,4.7,0.4,6.1,1.2s2.4,2.2,3,4.1l-3.1,0.5c-0.3-1.1-1-2.1-2-2.7
	c-1.2-0.6-2.6-0.9-4-0.8c-1.9,0-3.3,0.3-4.3,0.9c-1,0.6-1.5,1.6-1.5,2.8c0,0.7,0.2,1.3,0.6,1.8s0.9,0.9,1.7,1.2
	c0.7,0.3,2.2,0.7,4.3,1.2l2.2,0.5c0.7,0.2,1.4,0.4,2.1,0.6c0.7,0.2,1.3,0.5,1.8,0.8c0.6,0.3,1.1,0.7,1.5,1.2s0.8,1,1,1.6
	C111.9,781.7,112,782.4,112,783.2L112,783.2z M136.5,777.8c0,2.4-0.5,4.5-1.4,6.3c-0.9,1.7-2.3,3.2-4,4.1c-1.8,1-3.9,1.5-6,1.4h-8.8
	v-23.3h7.8c4,0,7,1,9.2,3C135.4,771.3,136.5,774.1,136.5,777.8L136.5,777.8z M133.3,777.8c0-2.9-0.8-5.1-2.4-6.6
	c-1.6-1.5-3.9-2.3-6.9-2.3h-4.5v18.3h5.2c1.7,0,3.2-0.4,4.5-1.1c1.3-0.8,2.4-1.9,3-3.2C133,781.4,133.3,779.7,133.3,777.8
	L133.3,777.8z M229.7,789.7h-3.2V786h3.2V789.7z M254.8,789.7h-3.5l-7-10.2l-7.2,10.2h-3.5l8.9-12.1l-8.2-11.2h3.5l6.5,9.2l6.3-9.2
	h3.5l-8,11.1L254.8,789.7z M278.5,777.8c0,2.4-0.5,4.5-1.4,6.3c-0.9,1.7-2.3,3.2-4,4.1c-1.8,1-3.9,1.5-6,1.4h-8.8v-23.3h7.8
	c4,0,7,1,9.2,3C277.4,771.3,278.5,774.1,278.5,777.8L278.5,777.8z M275.3,777.8c0-2.9-0.8-5.1-2.4-6.6s-3.9-2.3-6.9-2.3h-4.5v18.3
	h5.2c1.7,0,3.2-0.4,4.5-1.1c1.3-0.8,2.4-1.9,3-3.2C275,781.4,275.3,779.7,275.3,777.8L275.3,777.8z M362.2,789.7H359V786h3.2V789.7z
	 M381.1,784.7c0,1.7-0.6,3-1.9,3.9s-3.1,1.4-5.4,1.4c-2.2,0-4-0.4-5.2-1.1c-1.2-0.8-2.1-2-2.4-3.5l2.6-0.5c0.2,0.9,0.8,1.7,1.6,2.1
	c0.8,0.4,1.9,0.7,3.3,0.7c1.5,0,2.6-0.2,3.3-0.7c0.7-0.5,1.1-1.2,1.1-2.1c0-0.7-0.2-1.3-0.7-1.7c-0.7-0.5-1.5-0.9-2.4-1.1l-2.1-0.6
	c-1.3-0.3-2.5-0.7-3.7-1.3c-0.7-0.4-1.3-0.9-1.7-1.6c-0.4-0.7-0.6-1.4-0.6-2.2c0-1.6,0.6-2.9,1.8-3.7c1.2-0.9,2.9-1.3,5.1-1.3
	c2,0,3.6,0.3,4.7,1c1.2,0.7,2,2,2.2,3.3L378,776c-0.2-0.8-0.6-1.4-1.4-1.8c-0.9-0.5-1.9-0.7-2.9-0.7c-1.4,0-2.4,0.2-3,0.6
	c-0.6,0.4-1,1.1-1,1.9c0,0.5,0.1,0.9,0.4,1.3s0.7,0.6,1.2,0.8s1.6,0.5,3.3,1c1.6,0.4,2.7,0.8,3.4,1.1c0.7,0.3,1.2,0.7,1.6,1.1
	C380.7,782.3,381.2,783.5,381.1,784.7L381.1,784.7z M399.5,789.7H396l-6.1-8.2l-2.2,1.8v6.4h-3v-24.6h3v15.4l7.9-8.7h3.5l-7.3,7.7
	L399.5,789.7z M416.8,781.3H404c0,2,0.4,3.6,1.3,4.8c0.9,1.1,2.1,1.7,3.7,1.7c1.3,0,2.3-0.3,3.1-0.8c0.7-0.5,1.3-1.2,1.6-2l2.6,0.8
	c-1.1,2.8-3.5,4.2-7.3,4.2c-2.7,0-4.7-0.8-6.1-2.4c-1.4-1.6-2.1-3.9-2.1-7c0-3,0.7-5.2,2.1-6.8s3.4-2.4,6-2.4c5.3,0,7.9,3.2,7.9,9.5
	L416.8,781.3L416.8,781.3z M404,779.1h9.7c-0.2-1.9-0.6-3.3-1.5-4.1c-0.8-0.9-2-1.3-3.4-1.3c-1.5,0-2.6,0.5-3.5,1.5
	C404.5,776.2,404,777.6,404,779.1L404,779.1z M427.6,787.3v2.2c-1,0.3-2,0.4-3,0.4c-2.4,0-3.6-1.3-3.6-4.1v-12h-2.1v-2.2h2.2l0.9-4
	h2v4h3.3v2.2H424v11.3c0,0.9,0.1,1.5,0.4,1.8s0.8,0.5,1.5,0.5C426.3,787.6,426.8,787.5,427.6,787.3L427.6,787.3z M432.4,780.6
	c0,2.4,0.4,4.2,1.1,5.3c0.8,1.2,1.9,1.7,3.4,1.7c1.1,0,2-0.3,2.7-0.9c0.8-0.7,1.2-1.6,1.3-2.7l3,0.2c-0.2,1.6-1,3.1-2.2,4.1
	c-1.3,1.1-3,1.6-4.7,1.5c-2.5,0-4.4-0.8-5.8-2.4c-1.3-1.6-2-3.9-2-6.9s0.7-5.3,2-6.9c1.3-1.6,3.2-2.4,5.7-2.4c1.8,0,3.4,0.5,4.6,1.4
	c1.2,1,2.1,2.4,2.3,3.9l-3.1,0.2c-0.1-0.9-0.5-1.7-1.2-2.4c-0.6-0.6-1.5-0.9-2.7-0.9c-1.6,0-2.7,0.5-3.4,1.6
	S432.4,778.1,432.4,780.6L432.4,780.6z M450.1,774.8L450.1,774.8c0.6-1,1.4-1.9,2.4-2.6c1-0.6,2.2-0.9,3.4-0.8c2,0,3.4,0.5,4.3,1.5
	s1.4,2.6,1.4,4.8v12h-3v-11.4c0-1.3-0.1-2.2-0.4-2.8c-0.2-0.6-0.6-1.1-1.1-1.4c-0.7-0.3-1.4-0.5-2.2-0.4c-1.4,0-2.5,0.5-3.4,1.5
	c-0.9,1.1-1.3,2.5-1.3,3.9v10.6h-3v-24.6h3v6.4c0,0.7,0,1.4-0.1,2.1C450.1,774.3,450.1,774.7,450.1,774.8L450.1,774.8z M545.9,789.7
	h-3.2V786h3.2V789.7z M571,789.7h-3.5l-7-10.2l-7.2,10.2h-3.5l8.9-12.1l-8.2-11.2h3.5l6.5,9.2l6.3-9.2h3.5l-8,11.1L571,789.7z
	 M584.9,768.6c-2.6,0-4.6,0.8-6.1,2.5c-1.4,1.7-2.2,3.9-2.2,6.8c0,2.9,0.8,5.2,2.2,6.9c1.5,1.7,3.8,2.7,6.1,2.6
	c3.3,0,5.8-1.6,7.4-4.8l2.6,1.3c-0.9,1.9-2.3,3.5-4.1,4.6s-3.9,1.6-6.1,1.6c-2.4,0-4.4-0.5-6.1-1.5c-1.7-1-3.1-2.4-3.9-4.2
	c-0.9-2-1.4-4.2-1.3-6.5c0-3.7,1-6.6,3-8.8s4.8-3.2,8.4-3.2c2.5,0,4.6,0.5,6.2,1.5c1.7,1,3,2.5,3.7,4.3l-3,1
	c-0.5-1.3-1.4-2.4-2.6-3.1C587.9,768.9,586.4,768.5,584.9,768.6L584.9,768.6z M615.8,768.9h-13.5v8.7h13.1v2.6h-13.1v9.5h-3.2v-23.3
	h16.7V768.9z M734.8,789.7h-3.7L725,780h-7.3v9.7h-3.2v-23.3h11c2.6,0,4.7,0.6,6.1,1.8c1.5,1.2,2.3,3,2.2,4.9c0,1.7-0.5,3.2-1.5,4.4
	c-1.1,1.2-2.6,2-4.2,2.2L734.8,789.7z M730.7,773c0-1.4-0.5-2.4-1.4-3.1c-0.9-0.7-2.2-1.1-4-1.1h-7.5v8.6h7.7c1.7,0,3-0.4,3.9-1.2
	C730.2,775.5,730.8,774.3,730.7,773z M759,789.7h-3.2l-2.7-6.8h-10.7l-2.7,6.8h-3.3l9.6-23.3h3.6L759,789.7z M748.2,770.1l-0.5-1.4
	l-0.2,0.5c-0.3,0.9-0.7,2.1-1.2,3.5l-3,7.7h8.8l-3-7.7C748.9,771.9,748.6,771.1,748.2,770.1L748.2,770.1z M789.9,766.3l-6.9,23.3
	h-3.8l-4.1-14.8c-0.3-0.9-0.7-2.6-1.2-5l-0.7,3.2c-0.2,0.9-1.7,6.4-4.5,16.6h-3.8l-6.9-23.3h3.3l4.2,14.8c0.5,1.9,1,3.8,1.4,5.7
	c0.3-1.2,0.6-2.5,0.9-4c0.3-1.4,1.9-7,4.6-16.6h3l4.1,14.5c0.6,2.4,1.1,4.4,1.5,6l0.2-0.6l0.7-3.1c0.2-0.8,1.8-6.4,4.7-16.9
	L789.9,766.3z M907.3,789.7h-3.2l-2.7-6.8h-10.7l-2.7,6.8h-3.3l9.6-23.3h3.6L907.3,789.7z M896.5,770.1l-0.5-1.4l-0.2,0.5
	c-0.3,0.9-0.7,2.1-1.2,3.5l-3,7.7h8.8l-3-7.7C897.1,771.9,896.8,771.1,896.5,770.1L896.5,770.1z M929.2,789.7h-3.8l-12.5-19.9
	l0.1,1.6l0.1,2.8v15.5h-2.8v-23.3h3.7l12.7,20c-0.1-2.2-0.2-3.7-0.2-4.7v-15.3h2.9L929.2,789.7z M954,766.3l-9,13.7v9.7h-3.2V780
	l-9-13.7h3.5l7.1,11.1l7.1-11.1H954z"/>
<g>
	<g>
		<polygon class="st16" points="455.6,156.2 455.6,133 448.2,133 448.2,156.2 429.9,156.2 429.9,163.7 448.2,163.7 448.2,205.8 
			455.6,205.8 455.6,163.7 473.8,163.7 473.8,156.2 		"/>
		<path class="st16" d="M183.8,152.3h-28.2v15h-12.9v38.5h7.4v-31h5.4v24h28.2v-24h5.4v31h7.4v-38.5h-12.9v-15H183.8z M176.3,191.3
			h-13.2v-16.5h13.2V191.3z M176.3,167.4h-13.2v-7.6h13.2V167.4z"/>
		<path class="st16" d="M255.4,197.5v-13.7h25.5v-7.4h-25.5V166h29.3v-7.4h-65v7.4H248v29.3c-4.6-1.9-8.8-4.5-12.3-7.8
			c-2.9-2.7-4.5-5.1-5.2-6.3v-9h-7.4v9.1c0,7.8-7,18.3-9.7,21.8l5.8,4.6c0.3-0.4,6.2-8,9.4-16.8c4.6,4.9,12.3,11.1,24.4,13.7
			c7.8,1.8,21.3,1.9,31.8,1.9h3.6V199h-1.7C277.1,199,263,199,255.4,197.5z"/>
		<rect x="308.2" y="132.6" class="st16" width="22.9" height="7.4"/>
		<polygon class="st16" points="143.4,155.9 135.3,155.9 135.3,144.1 143,144.1 143,147.8 196.4,147.8 196.4,140.3 173.4,140.3 
			173.4,132.9 165.9,132.9 165.9,140.3 143.4,140.3 143.4,136.7 119.5,136.7 119.5,144.1 127.8,144.1 127.8,155.9 119.5,155.9 
			119.5,163.3 127.8,163.3 127.8,163.4 116,194.4 122.9,197 127.8,184.2 127.8,205.9 135.3,205.9 135.3,163.3 143.4,163.3 		"/>
		<polygon class="st16" points="348.1,140.7 365.6,140.7 365.6,161 377.1,161 377.1,153.5 373.1,153.5 373.1,133.2 341.4,133.2 
			338.7,159.9 346.1,160.7 		"/>
		<rect x="400.9" y="134" class="st16" width="22.9" height="7.4"/>
		<path class="st16" d="M377.2,168.8l0.3-4h-38l0.3,4c0.1,0.7,1.1,11.3,12.6,22.1c-4.8,3.1-10.5,5.8-16.9,8l2.4,7
			c8.6-3,15.3-6.4,20.5-10.1c5.2,3.7,11.9,7.3,20.5,10.1l2.4-7c-6.4-2.2-12.1-4.9-16.9-8C376.1,180.2,377.2,169.5,377.2,168.8z
			 M358.5,186.3c-2.4-2.2-4.6-4.5-6.3-7c-1.9-2.7-3.1-5.2-3.8-7.1h20.3c-0.8,1.9-1.9,4.4-3.8,7.1C363.1,181.9,361,184.2,358.5,186.3
			z"/>
		<path class="st16" d="M401.1,205h25.4v-27.1h-25.4V205z M408.6,185.3h10.5v12.1h-10.5V185.3z"/>
		<rect x="400.9" y="162.9" class="st16" width="21.8" height="7.4"/>
		<rect x="308.2" y="147" class="st16" width="26.6" height="7.4"/>
		<polygon class="st16" points="255.8,133.5 248.3,133.5 248.3,140.7 216,140.7 216,154.5 223.4,154.5 223.4,148.1 280.8,148.1 
			280.8,154.5 288.3,154.5 288.3,140.7 255.8,140.7 		"/>
		<path class="st16" d="M308.4,203.6h24.2v-27.1h-24.2V203.6z M315.9,183.9h9.3V196h-9.3V183.9z"/>
		<rect x="308.2" y="161.4" class="st16" width="21.8" height="7.4"/>
		<rect x="400.9" y="148.5" class="st16" width="26.6" height="7.4"/>
	</g>
	<g>
		<polygon class="st16" points="583,176 601.8,176 601.8,168.4 583,168.4 583,154.2 575.1,154.2 575.1,168.4 557.3,168.4 557.3,176 
			575.1,176 575.1,196 554.3,196 554.3,203.6 605.4,203.6 605.4,196 583,196 		"/>
		<path class="st16" d="M569,131.4l-7.9-0.9c-1.1,3.8-2.4,7.6-4,11.2h-23.2v7.6h19.5c-5.5,9.9-13,18.9-22.4,26.7l4.9,6.3
			c2.6-2.3,5.2-4.5,7.7-7.1v31.4h7.7v-39.9c4.3-5.4,7.9-11.2,11.1-17.4h43.3v-7.6h-39.9C566.8,138.2,567.9,134.8,569,131.4z"/>
		<path class="st16" d="M632.1,163.4c-3.8,6.5-6.8,11.2-9.3,14c-1,0.9-2.1,1.6-3.5,2.1l2.1,7.1c7.8-1,16.1-3,24.9-5.9v-6.9
			c-5.4,1.8-10.6,3.3-15.7,4.4c4.5-5.9,10.1-15.1,16.7-27.8l-6.9-2.6c-1.5,3.1-3,6-4.5,8.8c-2.9,0.4-5.8,0.8-8.7,1
			c3.9-6,7.8-14.1,11.7-23.9l-7.4-2.9c-2.9,8.9-6.3,17.1-10.2,24.6c-1,1.4-2,2.4-3.1,2.9l1.9,7.1
			C624.3,164.5,628.2,163.9,632.1,163.4z"/>
		<path class="st16" d="M685.7,140.5c-2.1-2.6-5.2-5.9-9.1-9.6l-5.9,3.8c3.8,3.7,6.8,7.1,8.9,10.1L685.7,140.5z"/>
		<path class="st16" d="M647.2,189c-7.9,2.9-17.4,5.3-28.2,7.1l1,7.6c10.2-1.9,19.3-4.3,27.2-7.4V189L647.2,189z"/>
		<path class="st16" d="M681.9,197c-2,0-4.2-2-6.5-5.7c4.7-4.3,9.1-9.3,13.1-15.2l-6-4.2c-3,4.5-6.4,8.7-10.2,12.2
			c-1-3-2-6.4-2.6-10.2l-0.4-2.4l21-3.3l-1.1-7.3l-20.8,3.3c-0.4-2.9-0.5-5.9-0.6-9.2l20.4-2.9l-1-7.2l-19.4,2.6V131H660v17.5
			l-11.8,1.8l1.1,7.2l10.8-1.5c0.1,3.3,0.4,6.3,0.6,9.3l-14,2.1l1,7.3l14-2.1c0.4,1.8,0.6,3.5,1,5.3c1,4,2.1,7.8,3.5,11.2
			c-5.7,4.3-12.2,7.4-19.5,9.8l4.5,6.2c6.5-2,12.7-5,18.5-9.3c0.4,0.6,0.9,1.4,1.5,2.1c3.7,4.9,7.6,7.4,11.6,7.4
			c4.5,0,7.9-5.3,10.5-15.7l-6.5-4.4C685.3,193.1,683.8,197,681.9,197z"/>
		<path class="st16" d="M736.3,135.1h-25v65.4h9.2V175h15.7c14.4,0,21.7-6.7,21.7-20C758,141.7,750.8,135.1,736.3,135.1z
			 M745.7,163.8c-2.1,1.9-5.5,2.8-10,2.8h-15v-22.9h15c4.5,0,7.8,0.9,9.9,2.8c2.1,1.6,3.3,4.5,3.3,8.6
			C748.8,159,747.6,161.9,745.7,163.8z"/>
		<path class="st16" d="M805.2,168.9c-2.3-1.5-7.7-3.7-15.8-6.4c-5.7-1.9-9.2-3.1-10.5-4c-3-1.8-4.5-4-4.5-6.9
			c0-3.3,1.3-5.7,3.8-7.2c2.1-1.3,5.1-1.9,9.2-1.9c4.5,0,7.9,0.9,10.3,2.9c2.3,1.9,3.8,4.9,4.8,9.2h9.2c-0.6-7.2-2.9-12.3-7.2-15.7
			c-4-3.3-9.4-4.9-16.5-4.9c-6.4,0-11.7,1.5-15.9,4.7c-4.5,3.3-6.6,7.8-6.6,13.6c0,5.7,2.3,10.1,7,13.1c1.9,1.1,6.4,2.9,13.8,5.4
			c6.6,2.1,10.7,3.7,12,4.4c3.8,2.1,5.7,4.9,5.7,8.6c0,2.9-1.4,5.2-4.1,6.9c-2.7,1.6-6.4,2.5-10.9,2.5c-5.1,0-8.8-1-11.3-3
			c-2.7-2.1-4.4-5.9-5.1-11.1h-9.2c0.5,8.2,3.3,14.2,8.3,18.1c4.2,3.1,9.9,4.8,17.2,4.8c7.6,0,13.5-1.6,17.8-4.9
			c4.2-3.4,6.4-7.9,6.4-13.9C813,177,810.3,172.2,805.2,168.9z"/>
		<rect x="500.7" y="139.4" class="st32" width="2.6" height="68.2"/>
	</g>
</g>
<g class="st33">
	<path class="st34" d="M121.9,246.2c0.7,0.7,2.7,2.9,3.2,3.5l-1.2,1.6c-0.4-0.7-1.2-2-2-3.1v12.4H120v-11.7c-1,2.6-2.2,5.2-3.4,6.8
		c-0.2-0.6-0.7-1.4-1.1-1.9c1.6-1.9,3.2-5.4,4.2-8.4h-3.5v-1.9h3.8v-4.4c-1.1,0.2-2.2,0.4-3.3,0.5c-0.1-0.5-0.3-1.1-0.6-1.6
		c2.7-0.4,5.8-1.1,7.6-1.9l1.2,1.6c-0.9,0.4-2,0.7-3.1,1v4.8h3.5v1.9h-3.5V246.2z M140.4,238.7v1.8H125v-1.8h6.7
		c-0.3-0.8-0.7-1.7-1-2.4l1.8-0.5c0.5,0.9,1,2,1.3,2.9H140.4z M140,258.8c0,0.9-0.2,1.3-0.8,1.6c-0.6,0.3-1.5,0.3-3,0.3
		c-0.1-0.5-0.3-1.1-0.5-1.6c1,0,1.8,0,2.1,0c0.3,0,0.4-0.1,0.4-0.4v-8.1h-11v10h-1.8v-11.7H140V258.8z M138.3,247.4H127V242h11.3
		V247.4z M136.4,243.5h-7.7v2.5h7.7V243.5z M136.3,257.7H129v-5.5h7.4V257.7z M134.8,253.7h-4.2v2.5h4.2V253.7z"/>
	<path class="st34" d="M157.3,257.9c1.4,0.3,2.8,0.4,4.4,0.4c1,0,5.6,0,6.9-0.1c-0.3,0.5-0.6,1.4-0.8,2h-6.2c-5.6,0-9.7-1-12.1-5.6
		c-0.9,2.5-2.2,4.6-4,6.1c-0.3-0.4-1.1-1.1-1.6-1.4c3-2.3,4.5-6.1,5.1-11l2,0.2c-0.2,1.2-0.4,2.4-0.6,3.5c1,2.9,2.8,4.4,5,5.3v-11.2
		h-6.7v-1.9h15.7v1.9h-6.9v4.4h8v1.9h-8V257.9z M147,244.9h-2V239h10.5c-0.3-0.8-0.8-1.9-1.2-2.7l1.9-0.6c0.6,1,1.3,2.3,1.6,3.2h9.6
		v5.9h-2v-4H147V244.9z"/>
	<path class="st34" d="M180.7,253.8c0.2,0.5,0.5,1.3,0.7,1.7c-4.8,3.5-5.5,4.1-5.9,4.6c-0.2-0.5-0.7-1.3-1.1-1.7
		c0.5-0.3,1.4-1.2,1.4-2.4v-9.7H172v-1.9h5.7V256L180.7,253.8z M178.2,241.9c-0.9-1.1-2.7-2.9-4.1-4.2l1.3-1.2
		c1.5,1.2,3.3,2.9,4.2,4L178.2,241.9z M185.9,239.9c0,2.5-0.9,5.4-4.7,7.3c-0.2-0.4-0.9-1.2-1.3-1.5c3.5-1.6,4.1-3.9,4.1-5.9v-3h8.5
		v6.3c0,0.8,0.1,1,0.5,1h1.9c0.4,0,0.9-0.1,1.3-0.1c0,0.5,0.1,1.3,0.2,1.7c-0.4,0.1-0.9,0.1-1.4,0.1h-2c-1.8,0-2.2-0.8-2.2-2.8v-4.3
		h-4.8V239.9z M195,248.3c-1.1,3.4-2.9,6-5.2,7.9c1.9,1.3,4.3,2.2,6.9,2.8c-0.5,0.4-1,1.2-1.2,1.8c-2.8-0.7-5.2-1.8-7.3-3.3
		c-2.2,1.5-4.7,2.5-7.2,3.2c-0.2-0.5-0.6-1.3-1-1.8c2.4-0.5,4.7-1.4,6.7-2.7c-1.9-1.8-3.4-3.9-4.5-6.4l0.4-0.1h-1.4v-1.9h12.3
		l0.4-0.1L195,248.3z M184.1,249.7c1,2.1,2.4,3.9,4.2,5.4c1.8-1.4,3.2-3.2,4.2-5.4H184.1z"/>
	<path class="st34" d="M209.7,253.7c0.1,0.5,0.5,1.4,0.6,1.8c-5,3.6-5.8,4.2-6.2,4.7c-0.2-0.5-0.7-1.4-1.1-1.8
		c0.5-0.4,1.3-1.1,1.3-2.2v-9.7h-4.2v-2h6.3v11.5L209.7,253.7z M206.8,241.9c-0.9-1.2-2.8-3-4.2-4.2l1.3-1.3c1.5,1.2,3.4,2.9,4.3,4
		L206.8,241.9z M224.6,246.9h-6.8v13.7h-2.1v-13.7h-6.9v-2h6.9V236h2.1v8.8h6.8V246.9z"/>
	<path class="st34" d="M245.2,254.1h-16.7v-1.9h16.7V254.1z M250.8,246.4c0,0,0,0.7-0.1,1c-0.8,7.7-1.5,10.8-2.7,12
		c-0.7,0.7-1.4,0.9-2.5,0.9c-1,0.1-2.9,0-4.8-0.1c-0.1-0.6-0.4-1.4-0.8-2c2.1,0.2,4.2,0.2,5,0.2c0.7,0,1.1,0,1.4-0.3
		c1-0.8,1.7-3.6,2.3-9.8H233l-1.7,0c0.8-3,1.9-8.1,2.6-11.8l2,0.2c-0.2,0.9-0.4,1.9-0.6,2.9h15v1.9H235c-0.4,1.7-0.7,3.4-1.1,4.8
		H250.8z"/>
	<path class="st34" d="M257.5,238.8h5.7c4.5,0,7.4,1.5,7.4,5.8c0,4.2-3,6.1-7.3,6.1H260v7.9h-2.5V238.8z M263,248.7
		c3.5,0,5.1-1.3,5.1-4.1c0-2.9-1.8-3.8-5.2-3.8H260v7.9H263z"/>
	<path class="st34" d="M275.4,237h2.5v5.9l-0.1,3c1.4-1.4,2.9-2.5,4.9-2.5c3.1,0,4.5,2,4.5,5.8v9.3h-2.5v-9c0-2.8-0.8-3.9-2.8-3.9
		c-1.5,0-2.5,0.8-4,2.2v10.7h-2.5V237z"/>
	<path class="st34" d="M291.7,251.2c0-4.9,3.2-7.7,6.8-7.7c3.6,0,6.8,2.8,6.8,7.7c0,4.9-3.2,7.7-6.8,7.7
		C294.9,258.9,291.7,256.1,291.7,251.2z M302.8,251.2c0-3.4-1.7-5.7-4.3-5.7s-4.2,2.3-4.2,5.7c0,3.4,1.7,5.6,4.2,5.6
		S302.8,254.6,302.8,251.2z"/>
	<path class="st34" d="M310.1,254v-8.1h-2.2V244l2.3-0.1l0.3-4.1h2.1v4.1h4v2h-4v8.2c0,1.8,0.6,2.8,2.3,2.8c0.5,0,1.2-0.2,1.7-0.4
		l0.5,1.8c-0.8,0.3-1.8,0.5-2.7,0.5C311.1,258.9,310.1,257,310.1,254z"/>
	<path class="st34" d="M319.3,251.2c0-4.9,3.2-7.7,6.8-7.7c3.6,0,6.8,2.8,6.8,7.7c0,4.9-3.2,7.7-6.8,7.7
		C322.5,258.9,319.3,256.1,319.3,251.2z M330.4,251.2c0-3.4-1.7-5.7-4.3-5.7s-4.2,2.3-4.2,5.7c0,3.4,1.7,5.6,4.2,5.6
		S330.4,254.6,330.4,251.2z"/>
	<path class="st34" d="M337.8,243.9h2l0.2,1.7h0.1c1.3-1.1,3-2.1,4.7-2.1c3.8,0,5.8,3,5.8,7.5c0,5-3,7.9-6.4,7.9
		c-1.3,0-2.7-0.6-4.1-1.7l0.1,2.6v5h-2.5V243.9z M348,251c0-3.2-1.1-5.4-3.9-5.4c-1.2,0-2.5,0.7-3.9,2v7.7c1.3,1.1,2.6,1.5,3.6,1.5
		C346.3,256.9,348,254.7,348,251z"/>
	<path class="st34" d="M354.4,251.2c0-4.8,3.2-7.7,6.6-7.7c3.7,0,5.8,2.7,5.8,6.9c0,0.5-0.1,1.1-0.1,1.4h-9.9
		c0.2,3.1,2.1,5.1,4.9,5.1c1.4,0,2.6-0.4,3.7-1.2l0.9,1.6c-1.3,0.8-2.9,1.5-4.9,1.5C357.5,258.9,354.4,256.1,354.4,251.2z
		 M364.7,250.1c0-3-1.4-4.6-3.7-4.6c-2.1,0-3.9,1.7-4.2,4.6H364.7z"/>
	<path class="st34" d="M370.1,254.8c0-3.2,2.8-4.8,9-5.5c0-1.9-0.6-3.7-3-3.7c-1.7,0-3.2,0.8-4.4,1.6l-1-1.7
		c1.4-0.9,3.4-1.9,5.8-1.9c3.6,0,5.1,2.4,5.1,6v9h-2l-0.2-1.8h-0.1c-1.4,1.2-3.1,2.1-4.9,2.1C372,258.9,370.1,257.4,370.1,254.8z
		 M379.1,255v-4.1c-5,0.6-6.6,1.8-6.6,3.7c0,1.7,1.1,2.4,2.6,2.4C376.6,257,377.7,256.3,379.1,255z"/>
	<path class="st34" d="M395.1,255.3v5.4h-1.8v-5.1l-7,1.2l-0.4-1.9c0.5-0.1,1.1-0.1,1.7-0.2v-15.7h-1.5v-1.8h10.1v1.8h-1.2v14.6
		l2.1-0.3l0.1,1.7L395.1,255.3z M389.4,238.9v3.8h3.9v-3.8H389.4z M389.4,248.3h3.9v-3.9h-3.9V248.3z M389.4,254.4
		c1.2-0.2,2.5-0.4,3.9-0.6V250h-3.9V254.4z M403.8,250.1c1.2,4,3.6,7.3,7,8.8c-0.5,0.4-1,1.1-1.3,1.7c-2.9-1.5-5-4.1-6.4-7.5
		c-0.9,2.7-2.7,5.4-6.1,7.8c-0.3-0.5-1-1.1-1.5-1.4c4.4-2.8,5.8-6.3,6.3-9.3h-5.4v-1.8h5.5c0.1-0.6,0.1-1.1,0.1-1.7v-3.2H397v-1.9
		h6.7c1-1.4,2.2-3.6,2.9-5.1l2,0.6c-0.9,1.5-1.9,3.2-2.8,4.5h3.7v1.9H404v3.2c0,0.5,0,1.1-0.1,1.7h6.6v1.8H403.8z M400.5,241.4
		c-0.5-1.2-1.6-2.9-2.6-4.2l1.6-0.8c1.1,1.2,2.2,2.9,2.7,4.1L400.5,241.4z"/>
	<path class="st34" d="M428.5,236.7c-0.3,0.4-0.6,0.8-0.9,1.2c3.2,3.4,6.9,5.6,11.2,7.4c-0.5,0.4-1.1,1.2-1.4,1.8
		c-1.5-0.8-3-1.5-4.4-2.4v1.8h-13.6v-1.4c-1.4,0.8-2.7,1.6-4.1,2.2c-0.4-0.5-0.9-1.3-1.5-1.8c5.1-2,10.1-5.6,12.8-9.8L428.5,236.7z
		 M418.2,249.8h16.7v10.7h-2.1v-1.4h-12.6v1.5h-2V249.8z M420.2,251.6v5.6h12.6v-5.6H420.2z M433.1,244.7c-2.4-1.5-4.5-3.2-6.6-5.3
		c-1.8,2-3.9,3.8-6.2,5.3H433.1z"/>
	<path class="st34" d="M450.2,249.6c-1,0.4-2,0.6-3,1v7.6c0,1.1-0.2,1.6-0.9,1.9c-0.6,0.3-1.7,0.4-3.4,0.4c-0.1-0.5-0.3-1.3-0.6-1.9
		c1.2,0,2.2,0,2.5,0c0.4,0,0.5-0.1,0.5-0.5v-7c-1.1,0.4-2.2,0.7-3.1,1l-0.5-1.9c1-0.2,2.2-0.6,3.6-1.1v-5.9H442v-1.9h3.3V236h1.9
		v5.4h3v1.9h-3v5.3l2.7-0.8L450.2,249.6z M459.2,258.3c0.8,0.1,1.7,0.2,2.5,0.2c0.6,0,4.3,0,5.2,0c-0.3,0.4-0.5,1.3-0.6,1.8h-4.7
		c-3.9,0-6.7-0.7-8.5-4.5c-0.8,2-1.8,3.7-3.2,5c-0.3-0.3-1.1-0.9-1.5-1.2c2.4-1.9,3.6-4.9,4-8.9l1.9,0.2c-0.1,1-0.3,2-0.5,2.9
		c0.8,2.3,2,3.5,3.5,4.2v-8.5h-6.6v-1.7h15.4v1.7h-6.9v3.2h5.6v1.7h-5.6V258.3z M464.6,245.6h-12.7v-8.8h12.7V245.6z M462.7,238.4
		h-8.9v2.1h8.9V238.4z M462.7,241.9h-8.9v2.2h8.9V241.9z"/>
	<path class="st34" d="M478.1,236.6c-0.8,1.9-1.7,3.9-2.8,5.8v18.2h-2v-15.2c-0.8,1.2-1.8,2.3-2.7,3.3c-0.2-0.5-0.8-1.5-1.1-2
		c2.7-2.6,5.1-6.6,6.7-10.7L478.1,236.6z M483.9,254.3c-1.4,2.4-3.4,4.7-5.2,6.2c-0.4-0.4-1.1-1-1.6-1.2c1.8-1.4,3.7-3.5,4.8-5.6
		L483.9,254.3z M494.7,250.2v2h-17.5v-2h4.1v-6.6h-3.5v-1.9h3.5v-5.4h1.9v5.4h5.3v-5.5h1.9v5.5h3.8v1.9h-3.8v6.6H494.7z
		 M483.3,250.2h5.3v-6.6h-5.3V250.2z M489.6,253.8c1.9,1.8,3.9,4.2,4.8,5.8l-1.7,1.1c-0.9-1.7-2.9-4.2-4.7-6L489.6,253.8z"/>
</g>
</svg>
